<?xml version="1.0" encoding="UTF-8" standalone="no"?>
<!-- Created with Inkscape (http://www.inkscape.org/) -->

<svg
   width="50"
   height="50"
   viewBox="0 0 50 50.000002"
   version="1.1"
   id="svg1"
   xmlns="http://www.w3.org/2000/svg"
   xmlns:svg="http://www.w3.org/2000/svg">
  <defs
     id="defs1" />
  <g
     id="layer1">
    <g
       id="g18-6"
       transform="matrix(3.0137684,0.45302382,-0.45302382,3.0137684,-937.55572,-1843.8008)"
       style="stroke-width:0.328125">
      <g
         id="g121-26"
         transform="matrix(-0.48835343,0.34969726,-0.34969726,-0.48835343,607.18134,591.72705)"
         style="stroke-width:0.54628">
        <path
           style="fill:#a43a65;fill-opacity:1;stroke:none;stroke-width:2.09896;stroke-linecap:round;stroke-linejoin:round"
           d="m 427.19852,486.2622 c -0.26698,-0.76773 -1.11965,-2.1645 -2.10549,-3.71363 -0.98583,-1.54912 -2.10417,-3.24951 -3.70262,-5.29957 -1.59844,-2.05005 -3.71053,-4.49077 -5.66005,-6.24666 -1.94951,-1.75589 -3.84073,-2.91167 -5.06182,-3.40332 -1.22108,-0.49165 -1.86303,-0.36849 -2.40486,0.15231 -0.54184,0.5208 -1.11315,1.63505 -1.46501,3.00946 -0.35186,1.37441 -0.55875,3.17733 -0.38477,4.83682 0.17397,1.65949 0.74359,3.25593 1.01618,4.25802 0.27259,1.00209 0.27262,1.70976 -0.35945,2.1859 -0.63207,0.47615 -1.93381,1.34395 -2.95806,2.28366 -1.02426,0.93971 -1.83326,1.99874 -2.40938,3.42623 -0.57612,1.42748 -0.9334,3.27314 -0.84833,4.29642 0.0851,1.02328 1.38097,1.67429 2.77909,1.83753 1.39811,0.16325 3.52189,0.10331 5.87018,-0.30558 2.34829,-0.40889 5.016,-1.17739 7.9463,-2.27988 2.93029,-1.10249 6.16133,-2.55297 7.92834,-3.34296 1.767,-0.78999 2.08673,-0.92702 1.81975,-1.69475 z"
           id="path98-1"
           transform="matrix(0.52052688,0,0,0.52052688,22.148368,-12.037883)" />
        <path
           style="fill:#dea0ba;fill-opacity:1;stroke:none;stroke-width:2.09896;stroke-linecap:round;stroke-linejoin:round"
           d="m 425.59931,486.68008 c -1.02392,-0.21282 -3.13888,-0.72648 -5.15684,-1.27996 -2.01796,-0.55348 -3.94082,-1.14723 -5.36837,-1.61394 -1.42755,-0.4667 -2.36056,-0.80664 -2.82705,-0.97661 -0.4665,-0.16997 0.18814,-0.25536 0.6993,-0.16276 0.51116,0.0926 1.17976,0.324 1.82346,0.53363 0.6437,0.20963 1.2645,0.39819 1.95219,0.60008 0.6877,0.2019 1.44799,0.41877 2.44098,0.69864 0.99299,0.27988 2.22054,0.6233 3.11098,0.83896 0.89045,0.21565 1.44764,0.30414 1.72072,0.3475 0.27308,0.0434 -0.17206,-0.42149 -0.62,-0.79306 -0.44793,-0.37157 -1.20109,-0.96569 -2.23769,-1.74895 -1.0366,-0.78326 -2.3594,-1.75776 -3.0879,-2.32967 -0.72849,-0.5719 -1.13827,-1.0867 -0.62951,-0.76182 0.50876,0.32488 1.53275,0.97876 2.42332,1.59509 0.89056,0.61633 1.65723,1.20115 2.51939,1.89719 0.86216,0.69603 1.82481,1.5074 2.52718,2.05671 0.70238,0.5493 1.17792,0.85956 1.42297,1.04184 0.24504,0.18227 0.3108,0.26995 -0.71313,0.0571 z"
           id="path99-8"
           transform="matrix(0.52052688,0,0,0.52052688,22.490732,-12.060707)" />
      </g>
      <g
         id="g120-7"
         transform="matrix(0.17678047,-0.57404348,0.57404348,0.17678047,213.38293,663.90598)"
         style="stroke-width:0.54628">
        <path
           style="fill:#933661;fill-opacity:1;stroke:none;stroke-width:2.09896;stroke-linecap:round;stroke-linejoin:round"
           d="m 428.34577,486.18954 c -0.59004,-0.56892 -1.1022,-1.8859 -1.59224,-3.22671 -0.49003,-1.34082 -0.96804,-2.7344 -1.55262,-4.71851 -0.58458,-1.98411 -1.2793,-4.57178 -1.74712,-6.90948 -0.46781,-2.3377 -0.71416,-4.4568 -0.74335,-6.13377 -0.0292,-1.67696 0.1534,-2.91709 0.65835,-3.78493 0.50495,-0.86785 1.83741,-1.63426 2.86051,-1.55552 1.0231,0.0787 2.34347,0.68842 3.45227,1.3399 1.1088,0.65147 2.07767,1.3818 2.92497,2.31181 0.84729,0.93001 1.58882,2.08515 2.07194,2.65051 0.48312,0.56537 1.4389,0.62834 2.45814,0.42573 1.01924,-0.20261 2.51485,-0.67451 4.27077,-0.68223 1.75593,-0.008 4.11444,0.46714 5.18406,1.15628 1.06961,0.68913 1.18769,2.14254 0.90792,3.35088 -0.27977,1.20835 -0.93529,2.54885 -1.72971,3.83118 -0.79443,1.28234 -1.74251,2.53174 -3.09748,3.82903 -1.35497,1.29729 -3.15848,2.67949 -4.53865,3.69068 -1.38017,1.01118 -2.37869,1.68206 -3.59305,2.3896 -1.21436,0.70754 -2.64349,1.45131 -3.71648,1.91913 -1.07299,0.46782 -1.88819,0.68533 -2.47823,0.11642 z"
           id="path96-9"
           transform="matrix(0.52052688,0,0,0.52052688,36.089075,-1.8826483)" />
        <path
           style="fill:#dfa9c2;fill-opacity:1;stroke:none;stroke-width:2.09896;stroke-linecap:round;stroke-linejoin:round"
           d="m 428.90931,485.78019 c 0.1905,-0.71262 0.67195,-2.27482 1.14147,-3.71077 0.46951,-1.43595 0.9274,-2.74654 1.52501,-4.49234 0.5976,-1.74579 1.33607,-3.93012 1.82377,-5.27089 0.48769,-1.34076 0.73227,-1.85438 0.82754,-1.91758 0.0953,-0.0632 0.0389,0.44015 -0.17229,1.25187 -0.21117,0.81172 -0.58777,2.02562 -0.96591,3.13439 -0.37813,1.10878 -0.75951,2.11724 -1.11235,3.00484 -0.35285,0.8876 -0.68355,1.67026 -0.95388,2.35157 -0.27033,0.68131 -0.48226,1.26595 -0.55153,1.52952 -0.0693,0.26356 0.60355,-0.26358 1.15982,-0.97253 0.55628,-0.70895 1.35453,-1.88253 2.0959,-2.90327 0.74137,-1.02075 1.42942,-1.89362 1.86418,-2.32849 0.43476,-0.43488 0.50746,-0.4346 0.41748,-0.24442 -0.09,0.19018 -0.30562,0.64598 -0.6038,1.1611 -0.29819,0.51511 -0.69935,1.12974 -1.21468,1.87161 -0.51533,0.74188 -1.1472,1.61482 -1.71237,2.37447 -0.56518,0.75965 -1.06506,1.40784 -1.52733,2.02297 -0.46228,0.61512 -0.89359,1.2061 -1.22504,1.79413 -0.33145,0.58802 -0.57345,1.19773 -0.73972,1.55856 -0.16627,0.36083 -0.26677,0.49788 -0.0763,-0.21474 z"
           id="path97-2"
           transform="matrix(0.52052688,0,0,0.52052688,36.089075,-1.7685268)" />
      </g>
      <g
         id="g3-7-0"
         transform="matrix(0.32332864,-0.18164466,0.18164466,0.32332864,292.72164,557.59837)"
         style="stroke-width:0.88477">
        <path
           style="fill:#5c264c;fill-opacity:1;stroke:none;stroke-width:1.74542;stroke-linecap:round;stroke-linejoin:round"
           d="m 487.60726,576.76578 c -0.4056,1.26801 -0.62303,3.92279 -0.70446,5.94529 -0.0814,2.02251 -0.0262,3.43121 0.18477,5.1275 0.21095,1.6963 0.5782,3.69517 1.22953,5.2791 0.65132,1.58392 1.58688,2.75337 2.57604,2.98176 0.98917,0.22839 2.03991,-0.48919 2.92656,-1.34351 0.88664,-0.85431 1.63391,-1.88042 2.10268,-2.76966 0.46876,-0.88924 0.8071,-2.17491 1.30502,-2.34598 0.49792,-0.17108 1.37578,-0.0687 2.15177,-0.0561 0.77598,0.0125 1.45415,-0.0645 2.34778,-0.32601 0.89364,-0.26155 2.02092,-0.71319 2.86261,-1.27987 0.8417,-0.56667 1.50772,-1.37879 1.60277,-1.99705 0.095,-0.61826 -0.245,-1.41302 -0.85136,-2.14754 -0.60635,-0.73451 -1.53122,-1.4813 -3.13615,-2.4593 -1.60494,-0.978 -3.91944,-2.20941 -6.20133,-3.18961 -2.28188,-0.98019 -4.54829,-1.71673 -5.97257,-2.14249 -1.42428,-0.42575 -2.01806,-0.54451 -2.42366,0.7235 z"
           id="path2-2"
           transform="matrix(0.42144329,0.92206594,-0.92206594,0.42144329,583.19553,-542.02793)" />
        <path
           style="fill:#cc84b6;fill-opacity:1;stroke:none;stroke-width:1.74542;stroke-linecap:round;stroke-linejoin:round"
           d="m 488.12066,576.32907 c 0.0292,0.27771 0.67234,1.33007 1.19853,2.17781 0.52618,0.84774 0.93542,1.49084 1.2716,2.06087 0.33617,0.57004 0.59926,1.06698 0.93544,1.56393 0.33617,0.49696 0.74541,0.9939 1.0962,1.447 0.35079,0.4531 0.64311,0.86235 0.93543,1.28622 0.29233,0.42387 0.58465,0.86235 0.84774,1.25699 0.26309,0.39464 0.49695,0.74542 0.52618,0.67234 0.0292,-0.0731 -0.14616,-0.57003 -0.46772,-1.21315 -0.32156,-0.64312 -0.78927,-1.43237 -1.24237,-2.16319 -0.45311,-0.73081 -0.89158,-1.40314 -1.25699,-2.03164 -0.36541,-0.6285 -0.65773,-1.21314 -1.09621,-1.92933 -0.43849,-0.7162 -1.02313,-1.56392 -1.60778,-2.23627 -0.58465,-0.67235 -1.16929,-1.16929 -1.14005,-0.89158 z"
           id="path3-3"
           transform="matrix(0.42144329,0.92206594,-0.92206594,0.42144329,583.35726,-542.10185)" />
      </g>
    </g>
  </g>
</svg>
