<?xml version="1.0" encoding="UTF-8" standalone="no"?>
<!-- Created with Inkscape (http://www.inkscape.org/) -->

<svg
   width="50"
   height="50"
   viewBox="0 0 50 50.000002"
   version="1.1"
   id="svg1"
   inkscape:version="1.4.3 (0d15f75042, 2025-12-25)"
   sodipodi:docname="logo-inkscape.svg"
   xmlns:inkscape="http://www.inkscape.org/namespaces/inkscape"
   xmlns:sodipodi="http://sodipodi.sourceforge.net/DTD/sodipodi-0.dtd"
   xmlns="http://www.w3.org/2000/svg"
   xmlns:svg="http://www.w3.org/2000/svg">
  <sodipodi:namedview
     id="namedview1"
     pagecolor="#ffffff"
     bordercolor="#000000"
     borderopacity="0.25"
     inkscape:showpageshadow="2"
     inkscape:pageopacity="0.0"
     inkscape:pagecheckerboard="0"
     inkscape:deskcolor="#d1d1d1"
     inkscape:document-units="px"
     showborder="false"
     inkscape:zoom="2.8507296"
     inkscape:cx="170.83346"
     inkscape:cy="6.3141731"
     inkscape:window-width="1920"
     inkscape:window-height="1011"
     inkscape:window-x="0"
     inkscape:window-y="0"
     inkscape:window-maximized="1"
     inkscape:current-layer="layer1" />
  <defs
     id="defs1">
    <inkscape:path-effect
       effect="spiro"
       id="path-effect22"
       is_visible="true"
       lpeversion="1" />
    <inkscape:path-effect
       effect="bspline"
       id="path-effect100-9"
       is_visible="true"
       lpeversion="1.3"
       weight="33.333333"
       steps="2"
       helper_size="0"
       apply_no_weight="true"
       apply_with_weight="true"
       only_selected="false"
       uniform="false" />
    <inkscape:path-effect
       effect="bspline"
       id="path-effect101-0"
       is_visible="true"
       lpeversion="1.3"
       weight="33.333333"
       steps="2"
       helper_size="0"
       apply_no_weight="true"
       apply_with_weight="true"
       only_selected="false"
       uniform="false" />
    <inkscape:path-effect
       effect="bspline"
       id="path-effect107-1"
       is_visible="true"
       lpeversion="1.3"
       weight="33.333333"
       steps="2"
       helper_size="0"
       apply_no_weight="true"
       apply_with_weight="true"
       only_selected="false"
       uniform="false" />
    <inkscape:path-effect
       effect="bspline"
       id="path-effect109-5"
       is_visible="true"
       lpeversion="1.3"
       weight="33.333333"
       steps="2"
       helper_size="0"
       apply_no_weight="true"
       apply_with_weight="true"
       only_selected="false"
       uniform="false" />
    <inkscape:path-effect
       effect="bspline"
       id="path-effect95-2"
       is_visible="true"
       lpeversion="1.3"
       weight="33.333333"
       steps="2"
       helper_size="0"
       apply_no_weight="true"
       apply_with_weight="true"
       only_selected="false"
       uniform="false" />
    <inkscape:path-effect
       effect="bspline"
       id="path-effect103-7"
       is_visible="true"
       lpeversion="1.3"
       weight="33.333333"
       steps="2"
       helper_size="0"
       apply_no_weight="true"
       apply_with_weight="true"
       only_selected="false"
       uniform="false" />
    <inkscape:path-effect
       effect="bspline"
       id="path-effect105-2"
       is_visible="true"
       lpeversion="1.3"
       weight="33.333333"
       steps="2"
       helper_size="0"
       apply_no_weight="true"
       apply_with_weight="true"
       only_selected="false"
       uniform="false" />
    <inkscape:path-effect
       effect="bspline"
       id="path-effect98-6"
       is_visible="true"
       lpeversion="1.3"
       weight="33.333333"
       steps="2"
       helper_size="0"
       apply_no_weight="true"
       apply_with_weight="true"
       only_selected="false"
       uniform="false" />
    <inkscape:path-effect
       effect="bspline"
       id="path-effect99-1"
       is_visible="true"
       lpeversion="1.3"
       weight="33.333333"
       steps="2"
       helper_size="0"
       apply_no_weight="true"
       apply_with_weight="true"
       only_selected="false"
       uniform="false" />
    <inkscape:path-effect
       effect="bspline"
       id="path-effect96-5"
       is_visible="true"
       lpeversion="1.3"
       weight="33.333333"
       steps="2"
       helper_size="0"
       apply_no_weight="true"
       apply_with_weight="true"
       only_selected="false"
       uniform="false" />
    <inkscape:path-effect
       effect="bspline"
       id="path-effect97-9"
       is_visible="true"
       lpeversion="1.3"
       weight="33.333333"
       steps="2"
       helper_size="0"
       apply_no_weight="true"
       apply_with_weight="true"
       only_selected="false"
       uniform="false" />
    <inkscape:path-effect
       effect="bspline"
       id="path-effect4"
       is_visible="true"
       lpeversion="1.3"
       weight="33.333333"
       steps="2"
       helper_size="0"
       apply_no_weight="true"
       apply_with_weight="true"
       only_selected="false"
       uniform="false" />
    <inkscape:path-effect
       effect="bspline"
       id="path-effect6-4"
       is_visible="true"
       lpeversion="1.3"
       weight="33.333333"
       steps="2"
       helper_size="0"
       apply_no_weight="true"
       apply_with_weight="true"
       only_selected="false"
       uniform="false" />
    <inkscape:path-effect
       effect="bspline"
       id="path-effect103-9"
       is_visible="true"
       lpeversion="1.3"
       weight="33.333333"
       steps="2"
       helper_size="0"
       apply_no_weight="true"
       apply_with_weight="true"
       only_selected="false"
       uniform="false" />
    <inkscape:path-effect
       effect="bspline"
       id="path-effect105-4"
       is_visible="true"
       lpeversion="1.3"
       weight="33.333333"
       steps="2"
       helper_size="0"
       apply_no_weight="true"
       apply_with_weight="true"
       only_selected="false"
       uniform="false" />
  </defs>
  <g
     inkscape:label="Layer 1"
     inkscape:groupmode="layer"
     id="layer1">
    <g
       id="g23"
       transform="translate(-379.21625,-533.7027)">
      <path
         style="fill:none;fill-opacity:1;stroke:#88af95;stroke-width:1;stroke-linecap:round;stroke-linejoin:round;stroke-dasharray:none;stroke-opacity:1"
         d="m 406.7145,548.76207 c -5.56332,2.58469 -10.2236,7.06744 -13.02232,12.52623 -0.83157,1.62195 -1.50335,3.32681 -1.98435,5.0849 -0.46672,1.70589 -0.75859,3.47387 -1.48827,5.08491 -0.82044,1.81141 -2.15817,3.33984 -3.59664,4.71284 -1.38406,1.32107 -2.87933,2.52559 -4.46479,3.59664"
         id="path21"
         inkscape:path-effect="#path-effect22"
         inkscape:original-d="m 406.7145,548.76207 c -8.42073,-0.23041 -11.58348,5.33206 -13.02232,12.52623 -0.35556,1.77779 -1.5703,3.42869 -1.98435,5.0849 -0.43134,1.72535 -0.68535,3.47908 -1.48827,5.08491 -0.84583,1.69166 -2.27175,3.38795 -3.59664,4.71284 -1.36378,1.36378 -3.78642,2.23989 -4.46479,3.59664" />
      <text
         xml:space="preserve"
         style="font-style:normal;font-variant:normal;font-weight:normal;font-stretch:normal;font-size:28.0971px;font-family:'Noto Serif';-inkscape-font-specification:'Noto Serif';word-spacing:0px;writing-mode:lr-tb;direction:ltr;fill:#75485e;fill-opacity:1;stroke:none;stroke-width:0.999993;stroke-linecap:round;stroke-linejoin:round;stroke-dasharray:none;stroke-opacity:1"
         x="410.06577"
         y="576.57489"
         id="text19"><tspan
           sodipodi:role="line"
           id="tspan19"
           x="410.06577"
           y="576.57489"
           style="stroke-width:0.999993">ψ</tspan></text>
      <g
         id="g17"
         transform="rotate(11.539977,508.41385,980.03972)">
        <g
           id="g122"
           style="stroke-width:1.92718"
           transform="matrix(0.00202071,-0.51888674,0.51888674,0.00202071,218.37549,680.67532)"
           inkscape:transform-center-x="-5.5514212"
           inkscape:transform-center-y="6.3279314">
          <path
             style="fill:#582248;fill-opacity:1;stroke:none;stroke-width:7.40474;stroke-linecap:round;stroke-linejoin:round"
             d="m 426.84782,488.70934 c -1.59535,0.14965 -4.39044,1.36999 -6.72295,2.4595 -2.33251,1.08952 -4.21604,2.05517 -5.799,2.99914 -1.58296,0.94397 -2.8973,1.88528 -4.05223,2.97701 -1.15494,1.09173 -2.17082,2.349 -2.3025,3.45885 -0.13168,1.10984 0.75675,2.25153 2.10451,2.98599 1.34776,0.73445 3.40703,1.27438 4.80101,1.47163 1.39399,0.19725 2.27076,0.0758 2.92568,0.0701 0.65492,-0.006 1.64602,0.19792 1.90435,0.78672 0.25832,0.5888 0.69093,1.83256 1.65224,3.09298 0.96132,1.26043 2.56596,2.71799 3.70046,3.2321 1.13451,0.51411 2.29741,-0.0568 3.0895,-1.28855 0.7921,-1.23178 1.6053,-3.40663 2.03672,-5.24704 0.43141,-1.84041 0.52333,-3.46931 0.30787,-5.97641 -0.21545,-2.50711 -0.739,-5.92304 -1.19808,-8.08865 -0.45907,-2.16562 -0.85222,-3.083 -2.44758,-2.93334 z"
             id="path100"
             inkscape:path-effect="#path-effect100-9"
             inkscape:original-d="m 428.04832,487.63832 c -2.79397,1.22498 -5.60448,2.40999 -8.38602,3.66135 -1.95983,0.78336 -3.90411,1.63052 -5.61808,2.88029 -1.34027,0.87759 -2.69294,1.76538 -3.91072,2.80082 -1.02685,1.2462 -2.10634,2.45208 -3.04473,3.76822 0.10796,1.46484 0.94032,2.65016 2.38426,3.06391 1.8229,0.99758 3.87381,1.56939 5.9579,1.56211 0.85652,0.005 1.765,0.11248 2.53225,-0.35075 0.6545,-0.67919 1.75281,-0.99724 1.60047,0.32887 0.24908,1.20688 0.49226,2.51652 1.22775,3.5298 1.17543,1.7778 2.80041,3.21297 4.66437,4.23685 1.08334,0.34086 2.14663,-0.43294 2.71313,-1.3319 1.25278,-1.88515 2.08702,-4.05214 2.35685,-6.30321 0.24585,-1.60863 0.46419,-3.23039 0.27404,-4.85621 -0.29683,-3.43872 -0.92706,-6.8383 -1.56757,-10.22765 -0.31306,-0.95926 -0.65179,-1.89996 -1.1839,-2.7625 z"
             transform="matrix(0.52052688,0,0,0.52052688,-0.17890431,-27.825107)" />
          <path
             style="fill:#a23f83;fill-opacity:1;stroke:none;stroke-width:7.40474;stroke-linecap:round;stroke-linejoin:round"
             d="m 427.62445,488.69069 c -0.24848,0.39464 -0.74543,1.18391 -1.44052,1.92881 -0.69509,0.74489 -1.58856,1.4456 -2.51949,2.22213 -0.93093,0.77653 -1.89932,1.6289 -2.46764,2.15543 -0.56832,0.52654 -0.99735,1.03821 -0.82268,0.93396 0.17467,-0.10424 0.63457,-0.37873 1.06309,-0.66286 0.42852,-0.28413 0.8933,-0.61848 1.30652,-0.93174 0.41323,-0.31327 0.78054,-0.60948 1.27647,-0.98449 0.49592,-0.37502 1.1223,-0.83024 1.20585,-0.55606 0.0835,0.27419 -0.37517,1.27751 -0.93456,2.39765 -0.55938,1.12014 -1.22057,2.35929 -1.80829,3.39996 -0.58772,1.04066 -1.10353,1.88572 -1.42233,2.46306 -0.3188,0.57735 -0.61857,1.33614 -0.22578,0.76106 0.39279,-0.57509 1.19506,-1.76615 1.87434,-2.84539 0.67927,-1.07923 1.23797,-2.05032 1.79701,-3.04107 0.55903,-0.99076 1.12109,-2.00594 1.67471,-3.10598 0.55362,-1.10004 1.10089,-2.28867 1.38172,-3.0581 0.28083,-0.76943 0.29548,-1.12048 0.30279,-1.29575 0.007,-0.17526 0.007,-0.17526 -0.24121,0.21938 z"
             id="path101"
             inkscape:path-effect="#path-effect101-0"
             inkscape:original-d="m 427.87292,488.29605 c -0.50816,0.78222 -1.00693,1.57035 -1.49084,2.36782 -0.84784,0.75841 -1.76281,1.43171 -2.68024,2.10198 -1.00066,0.81558 -1.97935,1.65624 -2.90496,2.55691 -0.14457,0.22082 -0.82537,0.60558 -0.59743,0.71251 0.44429,-0.0494 0.79106,-0.51343 1.20309,-0.71804 0.48507,-0.30279 1.00805,-0.55622 1.38671,-0.99755 0.32786,-0.34594 0.68733,-0.65188 1.10166,-0.8884 0.64198,-0.43129 1.24943,-0.91257 1.87729,-1.36432 -0.50351,0.98257 -0.93516,1.99826 -1.37574,3.0091 -0.65439,1.24078 -1.29241,2.49229 -1.9814,3.71342 -0.5559,0.82005 -1.14038,1.62319 -1.54566,2.53224 -0.15605,0.29924 -0.55706,1.01804 -0.43849,1.10991 0.85171,-1.15494 1.70217,-2.31355 2.40344,-3.56816 0.58454,-0.95542 1.21526,-1.88508 1.67447,-2.91044 0.51984,-1.03524 1.16875,-2.00234 1.68268,-3.03925 0.53089,-1.1962 1.14287,-2.35504 1.64157,-3.56542 0.0146,-0.35073 0.0293,-0.70178 0.0439,-1.05231 z"
             transform="matrix(0.52052688,0,0,0.52052688,-0.08760702,-27.574039)" />
        </g>
        <g
           id="g1-7"
           transform="matrix(-0.27886355,0.04536126,-0.04536126,-0.27886355,415.67911,596.27311)"
           style="stroke-width:3.53946">
          <path
             style="fill:#5c264c;fill-opacity:1;stroke:none;stroke-width:6.98248;stroke-linecap:round;stroke-linejoin:round"
             d="m 488.35452,573.53737 c 0.49696,-0.96467 1.49091,-2.89411 3.01443,-4.99858 1.52353,-2.10446 3.57982,-4.38761 5.01206,-5.79561 1.43223,-1.408 2.26088,-1.9567 3.21209,-2.41794 0.95121,-0.46123 2.06208,-0.85953 2.86831,-0.78581 0.80624,0.0737 1.3969,0.71632 1.77399,1.60799 0.37709,0.89168 0.55129,2.10538 0.51677,3.30034 -0.0345,1.19496 -0.26494,2.46768 -0.35944,3.3806 -0.0945,0.91291 -0.0213,1.89281 0.22566,2.06517 0.24695,0.17236 0.92611,0.58702 1.59846,1.30402 0.67234,0.717 1.50398,1.86951 2.078,2.98074 0.57402,1.11123 0.94419,2.25656 0.81148,3.10984 -0.13271,0.85329 -0.868,1.51563 -1.79296,1.85617 -0.92496,0.34053 -2.177,0.36563 -3.78271,0.15353 -1.60572,-0.2121 -3.64478,-0.66318 -5.55338,-1.21477 -1.9086,-0.55158 -3.69937,-1.2071 -5.27119,-1.7657 -1.57183,-0.5586 -2.957,-1.0315 -3.7164,-1.31376 -0.75941,-0.28226 -0.94577,-0.39188 -1.03894,-0.44669 -0.0932,-0.0548 -0.0932,-0.0549 0.40377,-1.01954 z"
             id="path106"
             inkscape:path-effect="#path-effect107-1"
             inkscape:original-d="m 487.85757,574.50205 c 1.0011,-1.92565 2.02823,-3.83799 2.98169,-5.78799 2.09446,-2.24259 4.06931,-4.59909 6.1607,-6.84036 0.79305,-0.56908 1.45238,-1.37348 2.4336,-1.61143 1.10075,-0.42616 2.2174,-0.80833 3.33247,-1.19486 1.17608,-0.0742 1.42807,0.87969 1.68268,1.83067 0.35948,1.11293 0.70807,2.3016 0.49878,3.47499 -0.0703,1.29853 -0.39261,2.55462 -0.69061,3.81481 -0.44538,0.58976 -1.04316,1.6198 0.11795,1.57854 0.71114,-0.0619 1.21416,0.64126 1.72368,1.05237 0.98947,0.95232 1.97805,1.99158 2.40071,3.327 0.44774,1.11849 0.96351,2.21676 1.10716,3.42565 0.007,1.2802 -1.06851,1.56485 -2.09924,1.89097 -1.10756,0.57974 -2.37065,0.0534 -3.55721,0.0713 -2.04839,-0.34219 -4.06134,-0.91133 -6.09492,-1.34834 -1.79504,-0.63009 -3.55018,-1.38294 -5.36048,-1.96222 -1.36512,-0.45018 -2.88011,-0.54282 -4.0779,-1.39219 -0.18635,-0.10962 -0.37271,-0.21924 -0.55906,-0.32886 z"
             transform="matrix(0.44900321,0.90896433,-0.90896433,0.44900321,561.13963,-550.62856)" />
          <path
             style="fill:#cc84b6;fill-opacity:1;stroke:none;stroke-width:6.98248;stroke-linecap:round;stroke-linejoin:round"
             d="m 488.99291,574.17828 c 0.34606,-0.14838 1.04067,-0.4462 1.8086,-0.70619 0.76793,-0.25999 1.61632,-0.48469 2.50709,-0.75556 0.89077,-0.27086 1.83109,-0.58978 2.71373,-0.88293 0.88263,-0.29314 1.70844,-0.56081 2.4463,-0.78591 0.73786,-0.22511 1.39196,-0.40884 1.83258,-0.49176 0.44061,-0.0829 0.68895,-0.066 0.16631,0.12042 -0.52264,0.18639 -1.56822,0.5593 -2.39936,0.85751 -0.83114,0.2982 -1.44924,0.52222 -2.03374,0.73776 -0.58451,0.21554 -1.13836,0.4237 -1.41283,0.52685 -0.27446,0.10315 0.19147,0.16339 0.64601,0.19356 0.45454,0.0302 1.19383,0.0685 1.82648,0.10415 0.63265,0.0356 1.15984,0.0685 1.67657,0.15933 0.51674,0.0908 1.02788,0.24105 1.57617,0.42956 0.5483,0.1885 1.13296,0.41506 1.11905,0.46855 -0.0139,0.0535 -0.6307,-0.0669 -1.39647,-0.16161 -0.76578,-0.0947 -1.68781,-0.16505 -2.62448,-0.25134 -0.93667,-0.0863 -1.89167,-0.18887 -2.54103,-0.23991 -0.64937,-0.051 -0.9977,-0.051 -1.5374,0.0367 -0.5397,0.0877 -1.27327,0.26378 -1.61225,0.36073 -0.33897,0.0969 0.0327,0.24042 0.42335,0.29154 0.39065,0.0511 0.96904,0.0749 1.50302,0.13062 0.53398,0.0557 1.21767,0.17765 1.38635,0.31816 0.16868,0.14051 0.11877,0.33489 -0.0791,0.31477 -0.19783,-0.0201 -0.59316,-0.0603 -1.27324,-0.0658 -0.68007,-0.005 -1.64619,0.0238 -2.53849,-0.0639 -0.89231,-0.0877 -1.71082,-0.29232 -2.12007,-0.39464 -0.40925,-0.10231 -0.40925,-0.1023 -0.0632,-0.25068 z"
             id="path108"
             inkscape:path-effect="#path-effect109-5"
             inkscape:original-d="m 488.64684,574.32666 c 0.69363,-0.29326 1.37771,-0.61565 2.07732,-0.89067 0.84774,-0.2146 1.72591,-0.32687 2.53499,-0.67143 0.9304,-0.34785 1.85705,-0.70707 2.82,-0.95644 0.84328,-0.21378 1.64934,-0.54237 2.47743,-0.80299 0.65165,-0.17637 1.2932,-0.40477 1.95126,-0.54808 0.23555,-0.007 1.09531,-0.16207 0.48232,0.0329 -1.03703,0.39593 -2.06291,0.82408 -3.13516,1.11814 -0.63067,0.18897 -1.26465,0.36916 -1.85259,0.67143 -0.54161,0.23661 -1.06479,0.52638 -1.65528,0.6221 -0.12169,0.0545 0.46709,0.0513 0.63581,0.0822 0.73781,0.0652 1.47526,0.13899 2.21677,0.11508 0.53,-0.0149 1.05742,0.0143 1.5816,0.0987 0.55097,-0.004 1.0362,0.23438 1.52921,0.44944 0.57498,0.25135 1.16272,0.46997 1.75394,0.67965 -0.61388,-0.11256 -1.21926,-0.29135 -1.8389,-0.359 -0.92414,-0.0415 -1.84929,-0.071 -2.76519,-0.21104 -0.95187,-0.10456 -1.90232,-0.24952 -2.85753,-0.30693 -0.34832,0 -0.69665,0 -1.04498,0 -0.7289,0.18449 -1.43971,0.45539 -2.19242,0.52618 -0.0707,0.33149 0.42527,0.15296 0.62484,0.24118 0.57641,0.0614 1.15216,0.14937 1.73202,0.0712 0.50975,-0.0101 1.24497,-0.17716 1.56757,0.27954 0.11524,0.25471 0.32218,0.58248 -0.10414,0.40557 -0.39095,-0.0867 -0.78455,-0.14387 -1.18542,-0.12056 -0.96718,-0.0186 -1.93256,0.0349 -2.89796,0.0877 -0.8185,-0.20463 -1.63701,-0.40926 -2.45551,-0.61388 z"
             transform="matrix(0.57205483,0.83700256,-0.83700256,0.57205483,459.24648,-586.78655)" />
        </g>
      </g>
      <g
         id="g22"
         transform="rotate(-20.504996,388.98456,564.7439)">
        <path
           style="fill:#dfc7db;fill-opacity:1;stroke:none;stroke-width:4.88402;stroke-linecap:round;stroke-linejoin:round"
           d="m 452.03254,472.57749 c 0.39378,-0.50315 1.18976,-1.52025 1.91611,-2.41126 0.72635,-0.891 1.38695,-1.66177 2.01267,-2.34555 0.62571,-0.68377 1.1929,-1.25469 2.01064,-1.95537 0.81773,-0.70067 1.87832,-1.5221 3.01795,-2.25087 1.13962,-0.72876 2.41161,-1.39629 3.75811,-1.88507 1.34651,-0.48877 2.82769,-0.81972 3.89691,-1.00178 1.06921,-0.18206 1.76199,-0.22342 2.80278,-0.17641 1.04078,0.047 2.45304,0.18429 3.51249,0.31501 1.05945,0.13071 1.80121,0.25868 2.56272,0.58678 0.76152,0.3281 1.80666,1.02278 1.75438,1.69416 -0.0523,0.67139 -0.81925,1.69186 -1.64992,2.55874 -0.83066,0.86688 -1.77871,1.64564 -2.69638,2.307 -0.91768,0.66137 -1.80659,1.20859 -2.97518,1.74729 -1.16858,0.5387 -2.61475,1.06662 -3.83961,1.41062 -1.22485,0.34401 -2.23398,0.50699 -3.80732,0.72959 -1.57335,0.2226 -3.722,0.50608 -5.57121,0.69716 -1.84922,0.19108 -3.40975,0.29127 -4.54705,0.35675 -1.1373,0.0655 -1.84205,0.0958 -2.19695,0.11105 -0.35491,0.0153 -0.35491,0.0153 0.0389,-0.48784 z"
           id="path95"
           inkscape:path-effect="#path-effect95-2"
           inkscape:original-d="m 451.63877,473.08065 c 0.70203,-1.07324 1.4101,-2.15914 2.36781,-3.02554 0.53983,-0.89009 1.4338,-1.46085 2.00254,-2.33649 0.4522,-0.7066 1.26865,-1.02989 1.72534,-1.73669 1.04192,-0.83448 1.93401,-1.87347 3.16257,-2.44944 1.07745,-0.94226 2.47078,-1.37857 3.75166,-1.96885 1.40437,-0.50863 2.89401,-0.80175 4.37124,-0.97667 0.69806,0.0231 1.3914,-0.009 2.0775,-0.12402 1.40561,-0.0144 2.82766,0.0221 4.18589,0.40693 0.74696,0.0654 1.52311,-0.006 2.20166,0.37981 0.89403,0.3891 2.44157,0.32792 2.44788,1.62704 -0.37142,1.19464 -1.34154,2.06243 -2.19982,2.9269 -0.82173,0.90863 -1.7683,1.68918 -2.8215,2.31766 -0.78681,0.73392 -1.78929,1.09667 -2.68198,1.65105 -1.42403,0.57663 -2.92912,0.94315 -4.32491,1.5788 -1.03891,0.005 -2.01025,0.40195 -3.0389,0.49079 -2.09588,0.54123 -4.26955,0.63506 -6.41546,0.84641 -1.56296,0.0827 -3.12787,0.1146 -4.68451,0.30076 -0.71428,-0.0118 -1.41423,0.12989 -2.12701,0.0915 z"
           transform="matrix(0.28260645,-0.29635172,-0.29635172,-0.28260645,403.10177,835.27875)" />
        <path
           style="fill:#bc85a6;fill-opacity:1;stroke:none;stroke-width:4.88402;stroke-linecap:round;stroke-linejoin:round"
           d="m 452.03254,472.57749 c 0.39378,-0.50315 1.18976,-1.52025 1.91611,-2.41126 0.72635,-0.891 1.38695,-1.66177 2.01267,-2.34555 0.62571,-0.68377 1.1929,-1.25469 2.01064,-1.95537 0.81773,-0.70067 1.87832,-1.5221 3.01795,-2.25087 1.13962,-0.72876 2.41161,-1.39629 3.75811,-1.88507 1.34651,-0.48877 2.82769,-0.81972 3.89691,-1.00178 1.06921,-0.18206 1.76199,-0.22342 2.80278,-0.17641 1.04078,0.047 2.45304,0.18429 3.51249,0.31501 1.05945,0.13071 1.80121,0.25868 2.56272,0.58678 0.76152,0.3281 1.80666,1.02278 1.75438,1.69416 -0.0523,0.67139 -0.81925,1.69186 -1.64992,2.55874 -0.83066,0.86688 -1.77871,1.64564 -2.69638,2.307 -0.91768,0.66137 -1.80659,1.20859 -2.97518,1.74729 -1.16858,0.5387 -2.61475,1.06662 -3.83961,1.41062 -1.22485,0.34401 -2.23398,0.50699 -3.80732,0.72959 -1.57335,0.2226 -3.722,0.50608 -5.57121,0.69716 -1.84922,0.19108 -3.40975,0.29127 -4.54705,0.35675 -1.1373,0.0655 -1.84205,0.0958 -2.19695,0.11105 -0.35491,0.0153 -0.35491,0.0153 0.0389,-0.48784 z"
           id="path102"
           inkscape:path-effect="#path-effect103-7"
           inkscape:original-d="m 451.63877,473.08065 c 0.70203,-1.07324 1.4101,-2.15914 2.36781,-3.02554 0.53983,-0.89009 1.4338,-1.46085 2.00254,-2.33649 0.4522,-0.7066 1.26865,-1.02989 1.72534,-1.73669 1.04192,-0.83448 1.93401,-1.87347 3.16257,-2.44944 1.07745,-0.94226 2.47078,-1.37857 3.75166,-1.96885 1.40437,-0.50863 2.89401,-0.80175 4.37124,-0.97667 0.69806,0.0231 1.3914,-0.009 2.0775,-0.12402 1.40561,-0.0144 2.82766,0.0221 4.18589,0.40693 0.74696,0.0654 1.52311,-0.006 2.20166,0.37981 0.89403,0.3891 2.44157,0.32792 2.44788,1.62704 -0.37142,1.19464 -1.34154,2.06243 -2.19982,2.9269 -0.82173,0.90863 -1.7683,1.68918 -2.8215,2.31766 -0.78681,0.73392 -1.78929,1.09667 -2.68198,1.65105 -1.42403,0.57663 -2.92912,0.94315 -4.32491,1.5788 -1.03891,0.005 -2.01025,0.40195 -3.0389,0.49079 -2.09588,0.54123 -4.26955,0.63506 -6.41546,0.84641 -1.56296,0.0827 -3.12787,0.1146 -4.68451,0.30076 -0.71428,-0.0118 -1.41423,0.12989 -2.12701,0.0915 z"
           transform="matrix(0.07038054,-0.40340714,-0.40340714,-0.07038054,549.56316,783.27054)" />
        <path
           style="fill:#552245;fill-opacity:1;stroke:none;stroke-width:4.88402;stroke-linecap:round;stroke-linejoin:round"
           d="m 452.03254,472.57749 c 0.39378,-0.50315 1.18976,-1.52025 1.91611,-2.41126 0.72635,-0.891 1.38695,-1.66177 2.01267,-2.34555 0.62571,-0.68377 1.1929,-1.25469 2.01064,-1.95537 0.81773,-0.70067 1.87832,-1.5221 3.01795,-2.25087 1.13962,-0.72876 2.41161,-1.39629 3.75811,-1.88507 1.34651,-0.48877 2.82769,-0.81972 3.89691,-1.00178 1.06921,-0.18206 1.76199,-0.22342 2.80278,-0.17641 1.04078,0.047 2.45304,0.18429 3.51249,0.31501 1.05945,0.13071 1.80121,0.25868 2.56272,0.58678 0.76152,0.3281 1.80666,1.02278 1.75438,1.69416 -0.0523,0.67139 -0.81925,1.69186 -1.64992,2.55874 -0.83066,0.86688 -1.77871,1.64564 -2.69638,2.307 -0.91768,0.66137 -1.80659,1.20859 -2.97518,1.74729 -1.16858,0.5387 -2.61475,1.06662 -3.83961,1.41062 -1.22485,0.34401 -2.23398,0.50699 -3.80732,0.72959 -1.57335,0.2226 -3.722,0.50608 -5.57121,0.69716 -1.84922,0.19108 -3.40975,0.29127 -4.54705,0.35675 -1.1373,0.0655 -1.84205,0.0958 -2.19695,0.11105 -0.35491,0.0153 -0.35491,0.0153 0.0389,-0.48784 z"
           id="path103"
           inkscape:path-effect="#path-effect105-2"
           inkscape:original-d="m 451.63877,473.08065 c 0.70203,-1.07324 1.4101,-2.15914 2.36781,-3.02554 0.53983,-0.89009 1.4338,-1.46085 2.00254,-2.33649 0.4522,-0.7066 1.26865,-1.02989 1.72534,-1.73669 1.04192,-0.83448 1.93401,-1.87347 3.16257,-2.44944 1.07745,-0.94226 2.47078,-1.37857 3.75166,-1.96885 1.40437,-0.50863 2.89401,-0.80175 4.37124,-0.97667 0.69806,0.0231 1.3914,-0.009 2.0775,-0.12402 1.40561,-0.0144 2.82766,0.0221 4.18589,0.40693 0.74696,0.0654 1.52311,-0.006 2.20166,0.37981 0.89403,0.3891 2.44157,0.32792 2.44788,1.62704 -0.37142,1.19464 -1.34154,2.06243 -2.19982,2.9269 -0.82173,0.90863 -1.7683,1.68918 -2.8215,2.31766 -0.78681,0.73392 -1.78929,1.09667 -2.68198,1.65105 -1.42403,0.57663 -2.92912,0.94315 -4.32491,1.5788 -1.03891,0.005 -2.01025,0.40195 -3.0389,0.49079 -2.09588,0.54123 -4.26955,0.63506 -6.41546,0.84641 -1.56296,0.0827 -3.12787,0.1146 -4.68451,0.30076 -0.71428,-0.0118 -1.41423,0.12989 -2.12701,0.0915 z"
           transform="matrix(-0.12241008,-0.3907768,-0.3907768,0.12241008,630.71431,686.31742)" />
      </g>
      <g
         id="g18"
         transform="matrix(1.1871252,0,0,1.1871252,-72.555605,-115.53117)"
         style="stroke-width:0.842371">
        <g
           id="g121"
           transform="matrix(-0.48835343,0.34969726,-0.34969726,-0.48835343,607.18134,591.72705)"
           style="stroke-width:1.40243">
          <path
             style="fill:#a43a65;fill-opacity:1;stroke:none;stroke-width:5.38852;stroke-linecap:round;stroke-linejoin:round"
             d="m 427.19852,486.2622 c -0.26698,-0.76773 -1.11965,-2.1645 -2.10549,-3.71363 -0.98583,-1.54912 -2.10417,-3.24951 -3.70262,-5.29957 -1.59844,-2.05005 -3.71053,-4.49077 -5.66005,-6.24666 -1.94951,-1.75589 -3.84073,-2.91167 -5.06182,-3.40332 -1.22108,-0.49165 -1.86303,-0.36849 -2.40486,0.15231 -0.54184,0.5208 -1.11315,1.63505 -1.46501,3.00946 -0.35186,1.37441 -0.55875,3.17733 -0.38477,4.83682 0.17397,1.65949 0.74359,3.25593 1.01618,4.25802 0.27259,1.00209 0.27262,1.70976 -0.35945,2.1859 -0.63207,0.47615 -1.93381,1.34395 -2.95806,2.28366 -1.02426,0.93971 -1.83326,1.99874 -2.40938,3.42623 -0.57612,1.42748 -0.9334,3.27314 -0.84833,4.29642 0.0851,1.02328 1.38097,1.67429 2.77909,1.83753 1.39811,0.16325 3.52189,0.10331 5.87018,-0.30558 2.34829,-0.40889 5.016,-1.17739 7.9463,-2.27988 2.93029,-1.10249 6.16133,-2.55297 7.92834,-3.34296 1.767,-0.78999 2.08673,-0.92702 1.81975,-1.69475 z"
             id="path98"
             inkscape:path-effect="#path-effect98-6"
             inkscape:original-d="m 427.78523,486.8929 c -0.97119,-1.3267 -1.8284,-2.7207 -2.55966,-4.19301 -1.08446,-1.72275 -1.942,-3.59466 -3.34892,-5.0919 -1.89417,-2.5739 -3.7104,-5.27065 -6.27032,-7.24594 -1.67798,-1.35695 -3.48549,-2.64972 -5.52476,-3.37633 -0.65472,0.0142 -1.3464,-0.12186 -1.88563,0.36175 -0.90559,0.70342 -1.24341,1.93739 -1.54566,3.01458 -0.49759,1.7394 -0.6764,3.54554 -0.61387,5.3495 0.39433,1.60162 0.80474,3.25486 1.66624,4.66986 0.54909,0.47629 1.18648,1.18393 5e-5,1.29353 -1.38868,0.65593 -2.80432,1.35287 -3.81462,2.54301 -0.88133,0.98464 -1.5624,2.1414 -2.41186,3.15728 -0.60187,1.75475 -1.16932,3.55972 -1.05241,5.43661 0.16673,0.95478 1.76887,0.99619 2.5761,1.29413 2.04696,0.46726 4.1596,0.0127 6.21551,-0.17541 2.73458,-0.42092 5.307,-1.52021 7.95301,-2.29107 3.35561,-1.12282 6.50013,-2.76603 9.65762,-4.33551 0.31972,-0.13703 0.63945,-0.27406 0.95918,-0.41108 z"
             transform="matrix(0.52052688,0,0,0.52052688,22.148368,-12.037883)" />
          <path
             style="fill:#dea0ba;fill-opacity:1;stroke:none;stroke-width:5.38852;stroke-linecap:round;stroke-linejoin:round"
             d="m 425.59931,486.68008 c -1.02392,-0.21282 -3.13888,-0.72648 -5.15684,-1.27996 -2.01796,-0.55348 -3.94082,-1.14723 -5.36837,-1.61394 -1.42755,-0.4667 -2.36056,-0.80664 -2.82705,-0.97661 -0.4665,-0.16997 0.18814,-0.25536 0.6993,-0.16276 0.51116,0.0926 1.17976,0.324 1.82346,0.53363 0.6437,0.20963 1.2645,0.39819 1.95219,0.60008 0.6877,0.2019 1.44799,0.41877 2.44098,0.69864 0.99299,0.27988 2.22054,0.6233 3.11098,0.83896 0.89045,0.21565 1.44764,0.30414 1.72072,0.3475 0.27308,0.0434 -0.17206,-0.42149 -0.62,-0.79306 -0.44793,-0.37157 -1.20109,-0.96569 -2.23769,-1.74895 -1.0366,-0.78326 -2.3594,-1.75776 -3.0879,-2.32967 -0.72849,-0.5719 -1.13827,-1.0867 -0.62951,-0.76182 0.50876,0.32488 1.53275,0.97876 2.42332,1.59509 0.89056,0.61633 1.65723,1.20115 2.51939,1.89719 0.86216,0.69603 1.82481,1.5074 2.52718,2.05671 0.70238,0.5493 1.17792,0.85956 1.42297,1.04184 0.24504,0.18227 0.3108,0.26995 -0.71313,0.0571 z"
             id="path99"
             inkscape:path-effect="#path-effect99-1"
             inkscape:original-d="m 426.68901,486.9806 c -2.12192,-0.47917 -4.24245,-0.9699 -6.34158,-1.54018 -1.93846,-0.54346 -3.85025,-1.17307 -5.76881,-1.78134 -0.9619,-0.25773 -1.87967,-0.63949 -2.79807,-1.01948 -0.15755,-0.65643 0.65087,-0.11431 1.00851,-0.13154 0.65068,0.2827 1.29808,0.57534 2.00333,0.69335 0.63682,0.13697 1.2648,0.3019 1.86158,0.56544 0.73913,0.27375 1.53233,0.37527 2.27388,0.64861 1.21278,0.39841 2.48211,0.59248 3.68326,1.03044 0.54941,0.11237 1.08868,0.31369 1.65665,0.26309 0.30057,-0.0234 -0.4725,-0.43866 -0.58784,-0.61387 -0.72792,-0.62614 -1.44254,-1.26911 -2.2582,-1.78135 -1.30721,-0.99259 -2.5964,-2.01271 -3.96554,-2.9214 -0.24014,-0.0871 -0.65101,-0.7064 -0.54536,-0.68513 1.05376,0.59301 2.13469,1.15772 3.05568,1.95125 0.77136,0.57928 1.60038,1.08237 2.29931,1.75394 0.95752,0.80933 1.87811,1.6706 2.87755,2.42537 0.44379,0.29982 1.04806,0.41277 1.34834,0.87971 0.0658,0.0877 0.13154,0.17539 0.19731,0.26309 z"
             transform="matrix(0.52052688,0,0,0.52052688,22.490732,-12.060707)" />
        </g>
        <g
           id="g120"
           transform="matrix(0.17678047,-0.57404348,0.57404348,0.17678047,213.38293,663.90598)"
           style="stroke-width:1.40243">
          <path
             style="fill:#933661;fill-opacity:1;stroke:none;stroke-width:5.38852;stroke-linecap:round;stroke-linejoin:round"
             d="m 428.34577,486.18954 c -0.59004,-0.56892 -1.1022,-1.8859 -1.59224,-3.22671 -0.49003,-1.34082 -0.96804,-2.7344 -1.55262,-4.71851 -0.58458,-1.98411 -1.2793,-4.57178 -1.74712,-6.90948 -0.46781,-2.3377 -0.71416,-4.4568 -0.74335,-6.13377 -0.0292,-1.67696 0.1534,-2.91709 0.65835,-3.78493 0.50495,-0.86785 1.83741,-1.63426 2.86051,-1.55552 1.0231,0.0787 2.34347,0.68842 3.45227,1.3399 1.1088,0.65147 2.07767,1.3818 2.92497,2.31181 0.84729,0.93001 1.58882,2.08515 2.07194,2.65051 0.48312,0.56537 1.4389,0.62834 2.45814,0.42573 1.01924,-0.20261 2.51485,-0.67451 4.27077,-0.68223 1.75593,-0.008 4.11444,0.46714 5.18406,1.15628 1.06961,0.68913 1.18769,2.14254 0.90792,3.35088 -0.27977,1.20835 -0.93529,2.54885 -1.72971,3.83118 -0.79443,1.28234 -1.74251,2.53174 -3.09748,3.82903 -1.35497,1.29729 -3.15848,2.67949 -4.53865,3.69068 -1.38017,1.01118 -2.37869,1.68206 -3.59305,2.3896 -1.21436,0.70754 -2.64349,1.45131 -3.71648,1.91913 -1.07299,0.46782 -1.88819,0.68533 -2.47823,0.11642 z"
             id="path96"
             inkscape:path-effect="#path-effect96-5"
             inkscape:original-d="m 428.26756,486.93675 c -0.46492,-1.33437 -0.87044,-2.69282 -1.5347,-3.94636 -0.0518,-1.51161 -0.92406,-2.76996 -1.42507,-4.15464 -0.74787,-2.5604 -1.50062,-5.13249 -2.07774,-7.73911 -0.38442,-2.08318 -0.64946,-4.20011 -0.73405,-6.31431 -0.0358,-1.29077 0.42573,-2.48983 0.5536,-3.76 0.35081,-1.29695 1.60593,-2.19782 2.91591,-1.6772 1.37331,0.40706 2.76065,0.87172 3.86963,1.78682 1.12526,0.49448 1.87412,1.51668 2.89399,2.18146 0.88436,1.02644 1.80161,2.06877 2.18147,3.39826 0.16032,1.39286 1.17351,0.58441 1.83067,0.12062 1.31566,-0.75989 2.75362,-1.41449 4.30811,-1.3593 2.23815,-0.19131 4.67007,-0.081 6.53341,1.31545 1.02166,0.88666 0.63582,2.38101 0.28501,3.50788 -0.50886,1.39367 -1.08836,2.77134 -1.95125,3.9902 -0.82436,1.32925 -1.68816,2.64261 -2.82823,3.72712 -1.60238,1.57752 -3.43999,2.91523 -5.3495,4.09982 -0.78666,0.958 -1.89387,1.4671 -2.9817,2.00333 -1.46612,0.67727 -2.87464,1.46062 -4.29166,2.23353 -0.67574,0.3357 -1.41802,0.82653 -2.1979,0.58643 z"
             transform="matrix(0.52052688,0,0,0.52052688,36.089075,-1.8826483)" />
          <path
             style="fill:#dfa9c2;fill-opacity:1;stroke:none;stroke-width:5.38852;stroke-linecap:round;stroke-linejoin:round"
             d="m 428.90931,485.78019 c 0.1905,-0.71262 0.67195,-2.27482 1.14147,-3.71077 0.46951,-1.43595 0.9274,-2.74654 1.52501,-4.49234 0.5976,-1.74579 1.33607,-3.93012 1.82377,-5.27089 0.48769,-1.34076 0.73227,-1.85438 0.82754,-1.91758 0.0953,-0.0632 0.0389,0.44015 -0.17229,1.25187 -0.21117,0.81172 -0.58777,2.02562 -0.96591,3.13439 -0.37813,1.10878 -0.75951,2.11724 -1.11235,3.00484 -0.35285,0.8876 -0.68355,1.67026 -0.95388,2.35157 -0.27033,0.68131 -0.48226,1.26595 -0.55153,1.52952 -0.0693,0.26356 0.60355,-0.26358 1.15982,-0.97253 0.55628,-0.70895 1.35453,-1.88253 2.0959,-2.90327 0.74137,-1.02075 1.42942,-1.89362 1.86418,-2.32849 0.43476,-0.43488 0.50746,-0.4346 0.41748,-0.24442 -0.09,0.19018 -0.30562,0.64598 -0.6038,1.1611 -0.29819,0.51511 -0.69935,1.12974 -1.21468,1.87161 -0.51533,0.74188 -1.1472,1.61482 -1.71237,2.37447 -0.56518,0.75965 -1.06506,1.40784 -1.52733,2.02297 -0.46228,0.61512 -0.89359,1.2061 -1.22504,1.79413 -0.33145,0.58802 -0.57345,1.19773 -0.73972,1.55856 -0.16627,0.36083 -0.26677,0.49788 -0.0763,-0.21474 z"
             id="path97"
             inkscape:path-effect="#path-effect97-9"
             inkscape:original-d="m 428.61835,486.62981 c 0.43542,-1.57643 0.88385,-3.1488 1.44425,-4.6863 0.42533,-1.32135 0.92644,-2.61684 1.37301,-3.92992 0.62755,-2.21957 1.50682,-4.3563 2.21435,-6.54986 0.24223,-0.49595 0.32803,-1.08518 0.71253,-1.49632 0.29273,0.3953 -0.035,0.86824 -0.14247,1.27161 -0.40657,1.20381 -0.8326,2.40238 -1.1291,3.63941 -0.40677,0.99515 -0.9106,1.9573 -1.14005,3.01458 -0.23439,0.8135 -0.75412,1.51629 -0.98659,2.33493 -0.21588,0.58322 -0.42499,1.16889 -0.63581,1.75394 0.39854,0.35745 0.79843,-0.51802 1.06333,-0.83312 0.71502,-1.22414 1.57134,-2.35822 2.38974,-3.51336 0.70761,-0.85466 1.38177,-1.73848 2.06087,-2.61446 0.18488,-0.39312 0.26848,-0.38581 0.25609,9.7e-4 0.12067,0.52259 -0.46098,0.80523 -0.59596,1.25967 -0.32733,0.65155 -0.78212,1.23117 -1.19488,1.83068 -0.67637,0.84299 -1.16837,1.81717 -1.89643,2.61994 -0.51892,0.63116 -1.02081,1.2778 -1.49633,1.9403 -0.54385,0.49946 -0.88348,1.15736 -1.28805,1.76489 -0.0791,0.64809 -0.29232,1.26922 -0.70706,1.78134 -0.10048,0.13703 -0.20099,0.27407 -0.30144,0.41108 z"
             transform="matrix(0.52052688,0,0,0.52052688,36.089075,-1.7685268)" />
        </g>
        <g
           id="g3-7"
           transform="matrix(0.32332864,-0.18164466,0.18164466,0.32332864,292.72164,557.59837)"
           style="stroke-width:2.27141"
           inkscape:transform-center-x="-2.2678122"
           inkscape:transform-center-y="0.62294804">
          <path
             style="fill:#5c264c;fill-opacity:1;stroke:none;stroke-width:4.48092;stroke-linecap:round;stroke-linejoin:round"
             d="m 487.60726,576.76578 c -0.4056,1.26801 -0.62303,3.92279 -0.70446,5.94529 -0.0814,2.02251 -0.0262,3.43121 0.18477,5.1275 0.21095,1.6963 0.5782,3.69517 1.22953,5.2791 0.65132,1.58392 1.58688,2.75337 2.57604,2.98176 0.98917,0.22839 2.03991,-0.48919 2.92656,-1.34351 0.88664,-0.85431 1.63391,-1.88042 2.10268,-2.76966 0.46876,-0.88924 0.8071,-2.17491 1.30502,-2.34598 0.49792,-0.17108 1.37578,-0.0687 2.15177,-0.0561 0.77598,0.0125 1.45415,-0.0645 2.34778,-0.32601 0.89364,-0.26155 2.02092,-0.71319 2.86261,-1.27987 0.8417,-0.56667 1.50772,-1.37879 1.60277,-1.99705 0.095,-0.61826 -0.245,-1.41302 -0.85136,-2.14754 -0.60635,-0.73451 -1.53122,-1.4813 -3.13615,-2.4593 -1.60494,-0.978 -3.91944,-2.20941 -6.20133,-3.18961 -2.28188,-0.98019 -4.54829,-1.71673 -5.97257,-2.14249 -1.42428,-0.42575 -2.01806,-0.54451 -2.42366,0.7235 z"
             id="path2"
             inkscape:path-effect="#path-effect4"
             inkscape:original-d="m 487.41908,575.37902 c -0.26746,2.65067 -0.53629,5.30124 -0.65224,7.96397 -0.0946,1.39644 0.0686,2.8009 0.16443,4.19301 0.32712,2.00624 0.65586,4.01219 1.10169,5.99627 0.94234,1.16382 1.90759,2.30951 2.8063,3.50787 1.26582,-0.38612 2.23663,-1.22075 3.14613,-2.14857 1.00949,-0.77983 1.48307,-2.00526 2.20338,-3.02554 0.20642,-0.76795 0.0549,-2.18252 0.65773,-2.49936 0.86637,0.2092 1.73812,0.36407 2.63087,0.30694 0.68754,0.009 1.37813,0.0415 2.02803,-0.23021 1.19832,-0.23932 2.25634,-0.86383 3.36535,-1.34834 0.5322,-0.70668 1.6793,-1.12426 1.69912,-2.07184 0.30878,-0.91324 -0.51176,-1.50242 -0.94273,-2.20338 -0.81277,-0.81944 -1.80524,-1.48251 -2.71861,-2.19516 -2.27322,-1.29489 -4.53429,-2.62673 -6.92804,-3.68601 -2.25335,-0.75112 -4.4876,-1.58659 -6.78007,-2.20339 -0.59378,-0.11875 -1.18756,-0.23751 -1.78134,-0.35626 z"
             transform="matrix(0.42144329,0.92206594,-0.92206594,0.42144329,583.19553,-542.02793)" />
          <path
             style="fill:#cc84b6;fill-opacity:1;stroke:none;stroke-width:4.48092;stroke-linecap:round;stroke-linejoin:round"
             d="m 488.12066,576.32907 c 0.0292,0.27771 0.67234,1.33007 1.19853,2.17781 0.52618,0.84774 0.93542,1.49084 1.2716,2.06087 0.33617,0.57004 0.59926,1.06698 0.93544,1.56393 0.33617,0.49696 0.74541,0.9939 1.0962,1.447 0.35079,0.4531 0.64311,0.86235 0.93543,1.28622 0.29233,0.42387 0.58465,0.86235 0.84774,1.25699 0.26309,0.39464 0.49695,0.74542 0.52618,0.67234 0.0292,-0.0731 -0.14616,-0.57003 -0.46772,-1.21315 -0.32156,-0.64312 -0.78927,-1.43237 -1.24237,-2.16319 -0.45311,-0.73081 -0.89158,-1.40314 -1.25699,-2.03164 -0.36541,-0.6285 -0.65773,-1.21314 -1.09621,-1.92933 -0.43849,-0.7162 -1.02313,-1.56392 -1.60778,-2.23627 -0.58465,-0.67235 -1.16929,-1.16929 -1.14005,-0.89158 z"
             id="path3"
             inkscape:path-effect="#path-effect6-4"
             inkscape:original-d="m 487.50678,575.55441 c 0.64311,1.05237 1.28622,2.10473 1.92933,3.15709 0.40926,0.64312 0.8185,1.28622 1.22776,1.92933 0.26309,0.49696 0.52618,0.9939 0.78927,1.49085 0.40926,0.49696 0.8185,0.9939 1.22775,1.49084 0.29233,0.40926 0.58465,0.81851 0.87697,1.22776 0.29233,0.43849 0.58465,0.87697 0.87697,1.31545 0.23386,0.3508 0.46772,0.70158 0.70157,1.05236 -0.17539,-0.49695 -0.35078,-0.99389 -0.52618,-1.49084 -0.46772,-0.78929 -0.93543,-1.57854 -1.40315,-2.36782 -0.43849,-0.67235 -0.87696,-1.34468 -1.31545,-2.01702 -0.29233,-0.58466 -0.58464,-1.1693 -0.87697,-1.75394 -0.58465,-0.84775 -1.16929,-1.69547 -1.75393,-2.54321 -0.58466,-0.49696 -1.1693,-0.9939 -1.75394,-1.49085 z"
             transform="matrix(0.42144329,0.92206594,-0.92206594,0.42144329,583.35726,-542.10185)" />
        </g>
      </g>
      <g
         id="g7"
         transform="matrix(1.2160821,0,0,1.2160821,-48.964872,-145.36772)"
         style="stroke-width:0.822313">
        <path
           style="fill:#bc85a6;fill-opacity:1;stroke:none;stroke-width:5.03228;stroke-linecap:round;stroke-linejoin:round"
           d="m 452.03254,472.57749 c 0.39378,-0.50315 1.18976,-1.52025 1.91611,-2.41126 0.72635,-0.891 1.38695,-1.66177 2.01267,-2.34555 0.62571,-0.68377 1.1929,-1.25469 2.01064,-1.95537 0.81773,-0.70067 1.87832,-1.5221 3.01795,-2.25087 1.13962,-0.72876 2.41161,-1.39629 3.75811,-1.88507 1.34651,-0.48877 2.82769,-0.81972 3.89691,-1.00178 1.06921,-0.18206 1.76199,-0.22342 2.80278,-0.17641 1.04078,0.047 2.45304,0.18429 3.51249,0.31501 1.05945,0.13071 1.80121,0.25868 2.56272,0.58678 0.76152,0.3281 1.80666,1.02278 1.75438,1.69416 -0.0523,0.67139 -0.81925,1.69186 -1.64992,2.55874 -0.83066,0.86688 -1.77871,1.64564 -2.69638,2.307 -0.91768,0.66137 -1.80659,1.20859 -2.97518,1.74729 -1.16858,0.5387 -2.61475,1.06662 -3.83961,1.41062 -1.22485,0.34401 -2.23398,0.50699 -3.80732,0.72959 -1.57335,0.2226 -3.722,0.50608 -5.57121,0.69716 -1.84922,0.19108 -3.40975,0.29127 -4.54705,0.35675 -1.1373,0.0655 -1.84205,0.0958 -2.19695,0.11105 -0.35491,0.0153 -0.35491,0.0153 0.0389,-0.48784 z"
           id="path102-7"
           inkscape:path-effect="#path-effect103-9"
           inkscape:original-d="m 451.63877,473.08065 c 0.70203,-1.07324 1.4101,-2.15914 2.36781,-3.02554 0.53983,-0.89009 1.4338,-1.46085 2.00254,-2.33649 0.4522,-0.7066 1.26865,-1.02989 1.72534,-1.73669 1.04192,-0.83448 1.93401,-1.87347 3.16257,-2.44944 1.07745,-0.94226 2.47078,-1.37857 3.75166,-1.96885 1.40437,-0.50863 2.89401,-0.80175 4.37124,-0.97667 0.69806,0.0231 1.3914,-0.009 2.0775,-0.12402 1.40561,-0.0144 2.82766,0.0221 4.18589,0.40693 0.74696,0.0654 1.52311,-0.006 2.20166,0.37981 0.89403,0.3891 2.44157,0.32792 2.44788,1.62704 -0.37142,1.19464 -1.34154,2.06243 -2.19982,2.9269 -0.82173,0.90863 -1.7683,1.68918 -2.8215,2.31766 -0.78681,0.73392 -1.78929,1.09667 -2.68198,1.65105 -1.42403,0.57663 -2.92912,0.94315 -4.32491,1.5788 -1.03891,0.005 -2.01025,0.40195 -3.0389,0.49079 -2.09588,0.54123 -4.26955,0.63506 -6.41546,0.84641 -1.56296,0.0827 -3.12787,0.1146 -4.68451,0.30076 -0.71428,-0.0118 -1.41423,0.12989 -2.12701,0.0915 z"
           transform="matrix(0.2653004,-0.19085366,0.19085366,0.2653004,142.22123,559.74426)" />
        <path
           style="fill:#552245;fill-opacity:1;stroke:none;stroke-width:5.03228;stroke-linecap:round;stroke-linejoin:round"
           d="m 452.03254,472.57749 c 0.39378,-0.50315 1.18976,-1.52025 1.91611,-2.41126 0.72635,-0.891 1.38695,-1.66177 2.01267,-2.34555 0.62571,-0.68377 1.1929,-1.25469 2.01064,-1.95537 0.81773,-0.70067 1.87832,-1.5221 3.01795,-2.25087 1.13962,-0.72876 2.41161,-1.39629 3.75811,-1.88507 1.34651,-0.48877 2.82769,-0.81972 3.89691,-1.00178 1.06921,-0.18206 1.76199,-0.22342 2.80278,-0.17641 1.04078,0.047 2.45304,0.18429 3.51249,0.31501 1.05945,0.13071 1.80121,0.25868 2.56272,0.58678 0.76152,0.3281 1.80666,1.02278 1.75438,1.69416 -0.0523,0.67139 -0.81925,1.69186 -1.64992,2.55874 -0.83066,0.86688 -1.77871,1.64564 -2.69638,2.307 -0.91768,0.66137 -1.80659,1.20859 -2.97518,1.74729 -1.16858,0.5387 -2.61475,1.06662 -3.83961,1.41062 -1.22485,0.34401 -2.23398,0.50699 -3.80732,0.72959 -1.57335,0.2226 -3.722,0.50608 -5.57121,0.69716 -1.84922,0.19108 -3.40975,0.29127 -4.54705,0.35675 -1.1373,0.0655 -1.84205,0.0958 -2.19695,0.11105 -0.35491,0.0153 -0.35491,0.0153 0.0389,-0.48784 z"
           id="path103-6"
           inkscape:path-effect="#path-effect105-4"
           inkscape:original-d="m 451.63877,473.08065 c 0.70203,-1.07324 1.4101,-2.15914 2.36781,-3.02554 0.53983,-0.89009 1.4338,-1.46085 2.00254,-2.33649 0.4522,-0.7066 1.26865,-1.02989 1.72534,-1.73669 1.04192,-0.83448 1.93401,-1.87347 3.16257,-2.44944 1.07745,-0.94226 2.47078,-1.37857 3.75166,-1.96885 1.40437,-0.50863 2.89401,-0.80175 4.37124,-0.97667 0.69806,0.0231 1.3914,-0.009 2.0775,-0.12402 1.40561,-0.0144 2.82766,0.0221 4.18589,0.40693 0.74696,0.0654 1.52311,-0.006 2.20166,0.37981 0.89403,0.3891 2.44157,0.32792 2.44788,1.62704 -0.37142,1.19464 -1.34154,2.06243 -2.19982,2.9269 -0.82173,0.90863 -1.7683,1.68918 -2.8215,2.31766 -0.78681,0.73392 -1.78929,1.09667 -2.68198,1.65105 -1.42403,0.57663 -2.92912,0.94315 -4.32491,1.5788 -1.03891,0.005 -2.01025,0.40195 -3.0389,0.49079 -2.09588,0.54123 -4.26955,0.63506 -6.41546,0.84641 -1.56296,0.0827 -3.12787,0.1146 -4.68451,0.30076 -0.71428,-0.0118 -1.41423,0.12989 -2.12701,0.0915 z"
           transform="matrix(0.31476942,-0.08791835,0.08791835,0.31476942,168.55204,489.82766)" />
      </g>
    </g>
  </g>
</svg>
